<svg width="300" height="200" viewBox="0 0 300 200" fill="none" xmlns="http://www.w3.org/2000/svg">
<rect width="300" height="200" fill="#F3F4F6"/>
<path d="M120 60C125.523 60 130 64.477 130 70V80H170C175.523 80 180 84.477 180 90V130C180 135.523 175.523 140 170 140H130C124.477 140 120 135.523 120 130V90C120 84.477 124.477 80 130 80H120V70C120 64.477 124.477 60 130 60H120ZM150 100C161.046 100 170 108.954 170 120C170 131.046 161.046 140 150 140C138.954 140 130 131.046 130 120C130 108.954 138.954 100 150 100Z" fill="#9CA3AF"/>
<text x="150" y="170" text-anchor="middle" fill="#6B7280" font-family="Arial, sans-serif" font-size="14">No Image Available</text>
</svg>