<svg width="40" height="40" viewBox="0 0 40 40" fill="none" xmlns="http://www.w3.org/2000/svg">
<rect width="40" height="40" rx="20" fill="#F3F4F6"/>
<path d="M12 8C12.55 8 13 8.45 13 9V11H17C17.55 11 18 11.45 18 12V27C18 27.55 17.55 28 17 28H11C10.45 28 10 27.55 10 27V12C10 11.45 10.45 11 11 11H12V9C12 8.45 12.45 8 12 8ZM22 8C22.55 8 23 8.45 23 9V11H27C27.55 11 28 11.45 28 12V27C28 27.55 27.55 28 27 28H21C20.45 28 20 27.55 20 27V12C20 11.45 20.45 11 21 11H22V9C22 8.45 22.45 8 22 8Z" fill="#9CA3AF"/>
</svg>